<svg version="1.1" id="Layer_1" xmlns="http://www.w3.org/2000/svg" xmlns:xlink="http://www.w3.org/1999/xlink" x="0px" y="0px"
	 width="100%" viewBox="0 0 425 431" enable-background="new 0 0 425 431" xml:space="preserve">
<path fill="#FFFFFF" opacity="1.000000" stroke="none" 
	d="
M340.000000,432.000000 
	C258.979095,432.000000 177.958206,432.000000 96.384094,431.612610 
	C92.379295,430.488525 88.960396,429.485535 85.470963,429.057556 
	C58.789619,425.784851 37.573658,413.176483 21.817770,391.543457 
	C9.134335,374.128998 4.240583,353.977081 4.135671,332.926331 
	C3.780268,261.614471 3.911051,190.299561 4.088281,118.986382 
	C4.117470,107.241356 4.759638,95.436279 6.083505,83.768448 
	C9.161865,56.637459 22.602489,35.383369 44.823009,19.846708 
	C61.977913,7.851941 81.770668,3.245547 102.254036,3.147408 
	C179.064362,2.779397 255.877655,2.936290 332.689392,3.099829 
	C340.258698,3.115944 347.952698,3.894512 355.370636,5.396558 
	C387.116150,11.824634 410.231079,29.449648 423.652588,59.261955 
	C424.126099,60.313725 425.203888,61.093460 426.000000,61.999992 
	C426.000000,165.020889 426.000000,268.041779 425.650452,371.588379 
	C424.927094,372.417328 424.366608,372.644043 424.206451,373.034851 
	C418.232849,387.609680 409.246002,399.842773 396.870239,409.731903 
	C383.268463,420.600708 367.936554,426.897583 350.734161,429.086914 
	C347.091522,429.550507 343.574768,431.003082 340.000000,432.000000 
M288.106354,234.536713 
	C288.351440,235.039948 288.596527,235.543182 288.889587,236.783356 
	C290.712311,242.552383 294.621613,246.557663 300.033447,248.849579 
	C311.298187,253.620239 322.834656,253.344543 334.111816,249.122665 
	C343.658447,245.548645 347.645996,238.540665 347.240112,227.923584 
	C346.917633,219.487320 343.185577,215.117020 332.888428,211.800293 
	C325.787048,209.512909 318.474304,207.858124 311.447998,205.376968 
	C309.578644,204.716873 308.416473,202.054031 306.929657,200.310715 
	C308.861572,198.751633 310.572937,196.371231 312.765442,195.782349 
	C320.338806,193.748276 324.707703,196.154373 328.970551,203.705139 
	C334.318329,203.705139 339.572388,203.705139 345.053589,203.705139 
	C344.910645,195.495316 341.503387,189.438751 334.687622,185.821533 
	C323.903992,180.098465 312.590546,179.883118 301.460388,184.694336 
	C293.318756,188.213715 289.461243,195.014328 289.524933,203.815414 
	C289.587891,212.516083 294.767090,217.423080 302.472839,220.209183 
	C304.343842,220.885666 306.200195,221.622330 308.109772,222.168747 
	C313.855713,223.812958 319.738770,225.058029 325.350616,227.066925 
	C330.404877,228.876236 331.124115,233.241959 327.325317,236.175140 
	C320.666046,241.316986 308.165833,237.794525 305.050903,229.121536 
	C299.449738,228.880478 293.848938,228.627899 288.245453,228.467682 
	C288.111115,228.463852 287.947266,229.492203 287.725952,230.831177 
	C287.882782,231.874863 288.039642,232.918549 288.106354,234.536713 
M215.199799,199.357773 
	C218.627625,198.018341 221.978668,195.846130 225.500076,195.521347 
	C231.871796,194.933716 235.431152,197.551743 235.832733,201.689331 
	C236.198059,205.453201 233.320282,207.784470 226.743225,208.977997 
	C221.190582,209.985626 215.536926,210.587692 210.090179,211.996445 
	C198.728455,214.935059 193.640594,223.447845 195.520920,235.575485 
	C197.260941,246.798248 204.316162,252.536606 216.015671,252.253860 
	C223.639786,252.069626 230.245102,249.464386 235.190140,243.639053 
	C236.953217,246.140640 238.156128,249.658218 239.851883,249.914474 
	C244.969009,250.687759 250.277695,250.193649 254.437164,250.193649 
	C253.931366,241.777466 253.278534,234.091843 253.059052,226.393890 
	C252.826706,218.244247 253.023331,210.082840 253.002121,201.926651 
	C252.976807,192.195465 249.086975,186.576584 239.917023,183.725662 
	C230.825653,180.899155 221.564651,180.569809 212.370972,183.287384 
	C203.476364,185.916550 198.195740,192.901642 197.667755,202.565399 
	C198.514160,203.295425 199.332870,204.615234 200.211624,204.656509 
	C204.750870,204.869675 209.305496,204.755493 213.851624,204.755493 
	C214.229797,202.836197 214.512375,201.402054 215.199799,199.357773 
M39.492447,182.097427 
	C35.161701,182.099350 30.805307,181.840286 26.515800,182.261841 
	C25.224796,182.388718 23.090935,184.400757 23.082289,185.562134 
	C22.926086,206.545868 22.648838,227.542801 23.255377,248.512085 
	C23.553335,258.813080 28.649826,267.169250 38.763367,271.029083 
	C53.836334,276.781647 68.365707,276.809784 81.277512,265.356415 
	C82.984169,263.842529 84.956192,262.627808 87.849388,260.510437 
	C87.849388,264.267670 88.059441,266.411560 87.802727,268.498047 
	C87.359901,272.097168 88.847435,273.119812 92.300491,273.010223 
	C98.956062,272.799011 105.632881,272.766571 112.283058,273.061707 
	C116.238548,273.237183 117.154167,271.592987 116.903275,268.054779 
	C116.491287,262.244751 116.132050,256.412018 116.175568,250.592010 
	C116.333618,229.448654 116.570145,208.304535 117.023735,187.165985 
	C117.108459,183.217636 116.093796,181.835632 112.042030,182.014542 
	C105.226051,182.315536 98.384117,182.216690 91.559174,182.044952 
	C88.309105,181.963181 86.691071,182.607742 86.861115,186.414627 
	C87.329132,196.893005 87.808548,207.397247 87.555870,217.873703 
	C87.324402,227.470795 86.439171,237.080185 85.303688,246.620087 
	C83.981010,257.732758 73.857498,259.861328 66.273506,258.589813 
	C57.921394,257.189484 52.134697,249.869080 52.133415,239.939636 
	C52.131485,224.958588 52.733906,209.977524 53.073254,194.996323 
	C53.165630,190.918320 54.860886,184.784515 52.926140,183.254669 
	C50.186741,181.088577 44.761818,182.318848 39.492447,182.097427 
M186.766708,199.861511 
	C183.173340,191.105316 177.580917,184.407883 167.892029,182.296432 
	C158.403549,180.228638 150.303543,183.016647 143.392151,190.399368 
	C142.846832,188.210144 143.106567,186.409027 142.748154,184.740723 
	C142.537491,183.760147 141.379379,182.281677 140.587341,182.242538 
	C135.839447,182.007935 131.074112,182.126190 126.285484,182.126190 
	C126.285484,212.740601 126.285484,242.606613 126.285484,272.591248 
	C131.978622,272.591248 137.352570,272.591248 143.417145,272.591248 
	C143.417145,262.910889 143.417145,253.580673 143.417145,243.528702 
	C144.753647,244.501480 145.294754,244.839401 145.772324,245.251053 
	C159.312469,256.922272 176.747406,253.643906 184.923065,237.509918 
	C190.935364,225.645126 190.724411,213.150421 186.766708,199.861511 
M403.612854,250.250565 
	C406.879486,250.250565 410.146118,250.250565 412.876709,250.250565 
	C412.180908,244.246902 411.163330,238.921310 411.027588,233.573334 
	C410.748810,222.586426 410.933838,211.587540 410.944061,200.593597 
	C410.950806,193.371292 407.743866,187.979950 401.181610,185.133194 
	C390.533051,180.513779 379.470886,180.005310 368.567352,184.002701 
	C361.399109,186.630692 356.864777,191.912460 355.809296,199.857483 
	C355.304626,203.656189 356.571136,204.987183 360.371307,204.709396 
	C364.132599,204.434479 367.929688,204.649307 371.559967,204.649307 
	C373.291565,197.657806 375.725983,195.664734 382.398743,195.350388 
	C389.100708,195.034653 393.314819,197.390228 393.785034,201.715073 
	C394.189270,205.433151 390.895203,207.913376 384.128510,209.062454 
	C378.889160,209.952164 373.579773,210.585815 368.442596,211.889404 
	C356.392303,214.947235 351.494507,223.141678 353.564026,236.112732 
	C355.343109,247.263443 362.828674,252.865067 374.964142,252.211548 
	C382.230408,251.820236 388.418274,249.054886 394.205719,242.459366 
	C394.409851,249.388718 397.555237,251.293243 403.612854,250.250565 
M280.112396,215.484039 
	C280.112396,204.304398 280.112396,193.124741 280.112396,182.196030 
	C274.762848,182.196030 269.542206,182.196030 263.947937,182.196030 
	C263.947937,204.615143 263.947937,227.141296 263.947937,249.962631 
	C269.508575,249.962631 275.085388,249.962631 280.113922,249.962631 
	C280.113922,238.679413 280.113922,227.577042 280.112396,215.484039 
M272.459259,159.279526 
	C266.108734,160.561722 262.916382,164.063400 263.507050,169.099152 
	C264.069214,173.891861 267.919250,177.200684 272.748566,176.966660 
	C277.400635,176.741241 280.071075,174.053925 280.965912,169.702866 
	C281.943481,164.949539 279.015991,161.208511 272.459259,159.279526 
z"/>
<path fill="#F8F8F8" opacity="1.000000" stroke="none" 
	d="
M426.000000,61.531334 
	C425.203888,61.093460 424.126099,60.313725 423.652588,59.261955 
	C410.231079,29.449648 387.116150,11.824634 355.370636,5.396558 
	C347.952698,3.894512 340.258698,3.115944 332.689392,3.099829 
	C255.877655,2.936290 179.064362,2.779397 102.254036,3.147408 
	C81.770668,3.245547 61.977913,7.851941 44.823009,19.846708 
	C22.602489,35.383369 9.161865,56.637459 6.083505,83.768448 
	C4.759638,95.436279 4.117470,107.241356 4.088281,118.986382 
	C3.911051,190.299561 3.780268,261.614471 4.135671,332.926331 
	C4.240583,353.977081 9.134335,374.128998 21.817770,391.543457 
	C37.573658,413.176483 58.789619,425.784851 85.470963,429.057556 
	C88.960396,429.485535 92.379295,430.488525 95.915436,431.612610 
	C64.347023,432.000000 32.694046,432.000000 1.020535,432.000000 
	C1.020535,288.409149 1.020535,144.818268 1.020535,1.113698 
	C142.666611,1.113698 284.333282,1.113698 426.000000,1.113698 
	C426.000000,21.079998 426.000000,41.071339 426.000000,61.531334 
z"/>
<path fill="#F8F8F8" opacity="1.000000" stroke="none" 
	d="
M340.468658,432.000000 
	C343.574768,431.003082 347.091522,429.550507 350.734161,429.086914 
	C367.936554,426.897583 383.268463,420.600708 396.870239,409.731903 
	C409.246002,399.842773 418.232849,387.609680 424.206451,373.034851 
	C424.366608,372.644043 424.927094,372.417328 425.650452,372.057068 
	C426.000000,391.939880 426.000000,411.879791 426.000000,432.000000 
	C397.646027,432.000000 369.291687,432.000000 340.468658,432.000000 
z"/>
<path fill="#F58836" opacity="1.000000" stroke="none" 
	d="
M39.988564,182.097473 
	C44.761818,182.318848 50.186741,181.088577 52.926140,183.254669 
	C54.860886,184.784515 53.165630,190.918320 53.073254,194.996323 
	C52.733906,209.977524 52.131485,224.958588 52.133415,239.939636 
	C52.134697,249.869080 57.921394,257.189484 66.273506,258.589813 
	C73.857498,259.861328 83.981010,257.732758 85.303688,246.620087 
	C86.439171,237.080185 87.324402,227.470795 87.555870,217.873703 
	C87.808548,207.397247 87.329132,196.893005 86.861115,186.414627 
	C86.691071,182.607742 88.309105,181.963181 91.559174,182.044952 
	C98.384117,182.216690 105.226051,182.315536 112.042030,182.014542 
	C116.093796,181.835632 117.108459,183.217636 117.023735,187.165985 
	C116.570145,208.304535 116.333618,229.448654 116.175568,250.592010 
	C116.132050,256.412018 116.491287,262.244751 116.903275,268.054779 
	C117.154167,271.592987 116.238548,273.237183 112.283058,273.061707 
	C105.632881,272.766571 98.956062,272.799011 92.300491,273.010223 
	C88.847435,273.119812 87.359901,272.097168 87.802727,268.498047 
	C88.059441,266.411560 87.849388,264.267670 87.849388,260.510437 
	C84.956192,262.627808 82.984169,263.842529 81.277512,265.356415 
	C68.365707,276.809784 53.836334,276.781647 38.763367,271.029083 
	C28.649826,267.169250 23.553335,258.813080 23.255377,248.512085 
	C22.648838,227.542801 22.926086,206.545868 23.082289,185.562134 
	C23.090935,184.400757 25.224796,182.388718 26.515800,182.261841 
	C30.805307,181.840286 35.161701,182.099350 39.988564,182.097473 
z"/>
<path fill="#393737" opacity="1.000000" stroke="none" 
	d="
M186.908051,200.225281 
	C190.724411,213.150421 190.935364,225.645126 184.923065,237.509918 
	C176.747406,253.643906 159.312469,256.922272 145.772324,245.251053 
	C145.294754,244.839401 144.753647,244.501480 143.417145,243.528702 
	C143.417145,253.580673 143.417145,262.910889 143.417145,272.591248 
	C137.352570,272.591248 131.978622,272.591248 126.285484,272.591248 
	C126.285484,242.606613 126.285484,212.740601 126.285484,182.126190 
	C131.074112,182.126190 135.839447,182.007935 140.587341,182.242538 
	C141.379379,182.281677 142.537491,183.760147 142.748154,184.740723 
	C143.106567,186.409027 142.846832,188.210144 143.392151,190.399368 
	C150.303543,183.016647 158.403549,180.228638 167.892029,182.296432 
	C177.580917,184.407883 183.173340,191.105316 186.908051,200.225281 
M144.470734,207.223419 
	C142.477448,214.111847 142.340759,220.966019 144.897308,227.755447 
	C147.076935,233.543930 151.329361,236.615341 157.312805,236.762131 
	C163.317368,236.909439 167.511871,234.069031 169.838699,228.685471 
	C172.939484,221.511200 172.703415,214.059814 170.517960,206.747894 
	C168.566238,200.217941 164.059357,197.065857 157.670792,196.995544 
	C151.027893,196.922440 147.433624,199.561584 144.470734,207.223419 
z"/>
<path fill="#3A3838" opacity="1.000000" stroke="none" 
	d="
M403.166107,250.250488 
	C397.555237,251.293243 394.409851,249.388718 394.205719,242.459366 
	C388.418274,249.054886 382.230408,251.820236 374.964142,252.211548 
	C362.828674,252.865067 355.343109,247.263443 353.564026,236.112732 
	C351.494507,223.141678 356.392303,214.947235 368.442596,211.889404 
	C373.579773,210.585815 378.889160,209.952164 384.128510,209.062454 
	C390.895203,207.913376 394.189270,205.433151 393.785034,201.715073 
	C393.314819,197.390228 389.100708,195.034653 382.398743,195.350388 
	C375.725983,195.664734 373.291565,197.657806 371.559967,204.649307 
	C367.929688,204.649307 364.132599,204.434479 360.371307,204.709396 
	C356.571136,204.987183 355.304626,203.656189 355.809296,199.857483 
	C356.864777,191.912460 361.399109,186.630692 368.567352,184.002701 
	C379.470886,180.005310 390.533051,180.513779 401.181610,185.133194 
	C407.743866,187.979950 410.950806,193.371292 410.944061,200.593597 
	C410.933838,211.587540 410.748810,222.586426 411.027588,233.573334 
	C411.163330,238.921310 412.180908,244.246902 412.876709,250.250565 
	C410.146118,250.250565 406.879486,250.250565 403.166107,250.250488 
M383.332703,220.888641 
	C381.078217,221.409180 378.757538,221.737930 376.582458,222.488525 
	C371.388977,224.280716 369.161316,228.038193 370.252563,232.748947 
	C371.175354,236.732346 374.820831,238.992752 379.877716,238.717041 
	C390.495178,238.138168 396.390320,229.084061 393.103729,218.177109 
	C390.118469,219.019363 387.126068,219.863632 383.332703,220.888641 
z"/>
<path fill="#393737" opacity="1.000000" stroke="none" 
	d="
M197.918777,201.978851 
	C198.195740,192.901642 203.476364,185.916550 212.370972,183.287384 
	C221.564651,180.569809 230.825653,180.899155 239.917023,183.725662 
	C249.086975,186.576584 252.976807,192.195465 253.002121,201.926651 
	C253.023331,210.082840 252.826706,218.244247 253.059052,226.393890 
	C253.278534,234.091843 253.931366,241.777466 254.437164,250.193649 
	C250.277695,250.193649 244.969009,250.687759 239.851883,249.914474 
	C238.156128,249.658218 236.953217,246.140640 235.190140,243.639053 
	C230.245102,249.464386 223.639786,252.069626 216.015671,252.253860 
	C204.316162,252.536606 197.260941,246.798248 195.520920,235.575485 
	C193.640594,223.447845 198.728455,214.935059 210.090179,211.996445 
	C215.536926,210.587692 221.190582,209.985626 226.743225,208.977997 
	C233.320282,207.784470 236.198059,205.453201 235.832733,201.689331 
	C235.431152,197.551743 231.871796,194.933716 225.500076,195.521347 
	C221.978668,195.846130 218.627625,198.018341 214.642761,199.763153 
	C213.077377,201.125244 212.064590,202.902298 211.061447,202.896866 
	C206.679031,202.873169 202.299408,202.332108 197.918777,201.978851 
M213.344406,226.117294 
	C210.283020,234.160294 214.556046,239.674835 223.044327,238.635483 
	C233.178436,237.394608 238.453583,228.510178 235.097900,218.216217 
	C231.778671,219.128342 228.392441,219.867279 225.144165,221.001373 
	C221.322037,222.335800 217.619507,224.012863 213.344406,226.117294 
z"/>
<path fill="#393737" opacity="1.000000" stroke="none" 
	d="
M305.192261,229.938232 
	C308.165833,237.794525 320.666046,241.316986 327.325317,236.175140 
	C331.124115,233.241959 330.404877,228.876236 325.350616,227.066925 
	C319.738770,225.058029 313.855713,223.812958 308.109772,222.168747 
	C306.200195,221.622330 304.343842,220.885666 302.472839,220.209183 
	C294.767090,217.423080 289.587891,212.516083 289.524933,203.815414 
	C289.461243,195.014328 293.318756,188.213715 301.460388,184.694336 
	C312.590546,179.883118 323.903992,180.098465 334.687622,185.821533 
	C341.503387,189.438751 344.910645,195.495316 345.053589,203.705139 
	C339.572388,203.705139 334.318329,203.705139 328.970551,203.705139 
	C324.707703,196.154373 320.338806,193.748276 312.765442,195.782349 
	C310.572937,196.371231 308.861572,198.751633 306.929626,200.310699 
	C308.416473,202.054031 309.578644,204.716873 311.447998,205.376968 
	C318.474304,207.858124 325.787048,209.512909 332.888428,211.800293 
	C343.185577,215.117020 346.917633,219.487320 347.240112,227.923584 
	C347.645996,238.540665 343.658447,245.548645 334.111816,249.122665 
	C322.834656,253.344543 311.298187,253.620239 300.033447,248.849579 
	C294.621613,246.557663 290.712311,242.552383 289.085571,236.258606 
	C288.919891,235.143311 288.558167,234.552780 288.196472,233.962234 
	C288.039642,232.918549 287.882782,231.874863 288.239746,230.375031 
	C294.233093,229.925323 299.712677,229.931778 305.192261,229.938232 
z"/>
<path fill="#3A3838" opacity="1.000000" stroke="none" 
	d="
M280.113159,215.979370 
	C280.113922,227.577042 280.113922,238.679413 280.113922,249.962631 
	C275.085388,249.962631 269.508575,249.962631 263.947937,249.962631 
	C263.947937,227.141296 263.947937,204.615143 263.947937,182.196030 
	C269.542206,182.196030 274.762848,182.196030 280.112396,182.196030 
	C280.112396,193.124741 280.112396,204.304398 280.113159,215.979370 
z"/>
<path fill="#F58938" opacity="1.000000" stroke="none" 
	d="
M272.839417,159.307404 
	C279.015991,161.208511 281.943481,164.949539 280.965912,169.702866 
	C280.071075,174.053925 277.400635,176.741241 272.748566,176.966660 
	C267.919250,177.200684 264.069214,173.891861 263.507050,169.099152 
	C262.916382,164.063400 266.108734,160.561722 272.839417,159.307404 
z"/>
<path fill="#525151" opacity="1.000000" stroke="none" 
	d="
M197.793274,202.272125 
	C202.299408,202.332108 206.679031,202.873169 211.061447,202.896866 
	C212.064590,202.902298 213.077377,201.125244 214.440338,200.068237 
	C214.512375,201.402054 214.229797,202.836197 213.851624,204.755493 
	C209.305496,204.755493 204.750870,204.869675 200.211624,204.656509 
	C199.332870,204.615234 198.514160,203.295425 197.793274,202.272125 
z"/>
<path fill="#585656" opacity="1.000000" stroke="none" 
	d="
M305.121582,229.529877 
	C299.712677,229.931778 294.233093,229.925323 288.275330,229.979004 
	C287.947266,229.492203 288.111115,228.463852 288.245453,228.467682 
	C293.848938,228.627899 299.449738,228.880478 305.121582,229.529877 
z"/>
<path fill="#585656" opacity="1.000000" stroke="none" 
	d="
M288.151428,234.249481 
	C288.558167,234.552780 288.919891,235.143311 289.061584,235.890137 
	C288.596527,235.543182 288.351440,235.039948 288.151428,234.249481 
z"/>
<path fill="#FBFBFB" opacity="1.000000" stroke="none" 
	d="
M144.612717,206.851410 
	C147.433624,199.561584 151.027893,196.922440 157.670792,196.995544 
	C164.059357,197.065857 168.566238,200.217941 170.517960,206.747894 
	C172.703415,214.059814 172.939484,221.511200 169.838699,228.685471 
	C167.511871,234.069031 163.317368,236.909439 157.312805,236.762131 
	C151.329361,236.615341 147.076935,233.543930 144.897308,227.755447 
	C142.340759,220.966019 142.477448,214.111847 144.612717,206.851410 
z"/>
<path fill="#F9F9F9" opacity="1.000000" stroke="none" 
	d="
M383.733215,220.798264 
	C387.126068,219.863632 390.118469,219.019363 393.103729,218.177109 
	C396.390320,229.084061 390.495178,238.138168 379.877716,238.717041 
	C374.820831,238.992752 371.175354,236.732346 370.252563,232.748947 
	C369.161316,228.038193 371.388977,224.280716 376.582458,222.488525 
	C378.757538,221.737930 381.078217,221.409180 383.733215,220.798264 
z"/>
<path fill="#FAFAFA" opacity="1.000000" stroke="none" 
	d="
M213.604767,225.829315 
	C217.619507,224.012863 221.322037,222.335800 225.144165,221.001373 
	C228.392441,219.867279 231.778671,219.128342 235.097900,218.216217 
	C238.453583,228.510178 233.178436,237.394608 223.044327,238.635483 
	C214.556046,239.674835 210.283020,234.160294 213.604767,225.829315 
z"/>
</svg>